<svg height="512pt" viewBox="-16 0 512 512" width="512pt" xmlns="http://www.w3.org/2000/svg"><path d="m435.042969 181h-90c-8.285157 0-15 6.714844-15 15v173.449219.109375 66.441406c0 5.199219 2.691406 10.027344 7.113281 12.761719 2.410156 1.488281 5.144531 2.238281 7.886719 2.238281 2.292969 0 4.589843-.523438 6.707031-1.582031l103.417969-51.707031c15.34375-7.675782 24.875-23.097657 24.875-40.25v-131.460938c0-24.8125-20.1875-45-45-45zm-75 90h30v57.445312l-30 16.074219zm90 86.460938c0 5.714843-3.179688 10.855468-8.292969 13.414062l-81.707031 40.855469v-33.179688l52.082031-27.902343c4.875-2.609376 7.917969-7.691407 7.917969-13.21875v-81.429688c0-8.285156-6.71875-15-15-15h-45v-30h75c8.269531 0 15 6.730469 15 15zm0 0" fill="#ff9100"/><path d="m315.042969 512h-240c-24.8125 0-45-20.1875-45-45v-279.027344c0-8.285156 6.714843-15 15-15 8.28125 0 15 6.714844 15 15v279.027344c0 8.269531 6.726562 15 15 15h240c8.269531 0 15-6.730469 15-15v-279.027344c0-8.285156 6.714843-15 15-15 8.28125 0 15 6.714844 15 15v279.027344c0 24.8125-20.1875 45-45 45zm0 0" fill="#fdbf00"/><g fill="#ff9100"><path d="m135.042969 421c-8.285157 0-15-6.714844-15-15v-90c0-8.285156 6.714843-15 15-15 8.28125 0 15 6.714844 15 15v90c0 8.285156-6.714844 15-15 15zm0 0"/><path d="m195.042969 421c-8.285157 0-15-6.714844-15-15v-90c0-8.285156 6.714843-15 15-15 8.28125 0 15 6.714844 15 15v90c0 8.285156-6.714844 15-15 15zm0 0"/><path d="m255.042969 421c-8.285157 0-15-6.714844-15-15v-90c0-8.285156 6.714843-15 15-15 8.28125 0 15 6.714844 15 15v90c0 8.285156-6.714844 15-15 15zm0 0"/></g><path d="m373.191406 88.632812c-12.152344-14.910156-29.265625-24.421874-48.011718-26.953124-12.363282-36.363282-46.464844-61.679688-85.136719-61.679688-16.015625 0-31.378907 4.132812-45 12.03125-13.621094-7.898438-28.988281-12.03125-45-12.03125-38.625 0-72.691407 25.253906-85.09375 61.542969-24.285157 2.878906-45.558594 16.886719-55.855469 37.464843-12.820312 25.609376-12.054688 53.445313 2.105469 76.363282 13.78125 22.308594 37.648437 35.628906 63.84375 35.628906 5.058593 0 10.082031-.511719 15-1.511719v16.511719c0 24.8125 20.1875 45 45 45s45-20.1875 45-45v-30c0-8.269531 6.726562-15 15-15 8.269531 0 15 6.730469 15 15v30c0 24.8125 20.1875 45 45 45s45-20.1875 45-45v-16.519531c10.640625 2.152343 21.78125 2.007812 32.742187-.535157 27.5625-6.386718 49.921875-29.371093 55.640625-57.191406 4.636719-22.558594-.917969-45.566406-15.234375-63.121094zm-14.152344 57.082032c-3.351562 16.289062-16.929687 30.273437-33.027343 34.007812-14.917969 3.457032-26.425781-.667968-33.457031-4.734375-4.644532-2.683593-10.363282-2.6875-15.007813-.007812-4.644531 2.675781-7.503906 7.628906-7.503906 12.992187v38.027344c0 8.269531-6.730469 15-15 15-8.273438 0-15-6.730469-15-15v-30c0-24.8125-20.1875-45-45-45s-45 20.1875-45 45v30c0 8.269531-6.730469 15-15 15-8.273438 0-15-6.730469-15-15v-38.027344c0-5.359375-2.863281-10.316406-7.507813-12.992187-4.640625-2.679688-10.363281-2.675781-15.003906.007812-6.796875 3.933594-14.574219 6.011719-22.488281 6.011719-15.722657 0-30.046875-7.996094-38.320313-21.394531-8.570312-13.875-8.863281-31.066407-.804687-47.167969 6.457031-12.898438 21.136719-21.214844 37.644531-21.4375 1.667969.332031 3.324219.359375 4.921875.144531 10.722656.804688 20.695313 5.351563 28.378906 13.035157 2.929688 2.929687 6.765625 4.394531 10.605469 4.394531 3.835938 0 7.675781-1.464844 10.605469-4.394531 5.859375-5.855469 5.859375-15.355469 0-21.210938-9-9-19.882813-15.417969-31.761719-18.910156 9.988281-20.40625 30.644531-34.058594 53.730469-34.058594 13.105469 0 25.550781 4.144531 35.988281 11.988281 5.339844 4.007813 12.683594 4.007813 18.019531 0 10.441407-7.84375 22.886719-11.988281 35.992188-11.988281 23.085937 0 43.742187 13.652344 53.726562 34.054688-11.875 3.496093-22.761719 9.914062-31.761719 18.914062-5.859374 5.855469-5.859374 15.351562 0 21.210938 2.929688 2.929687 6.769532 4.394531 10.605469 4.394531 3.839844 0 7.679688-1.464844 10.605469-4.394531 7.679688-7.679688 17.652344-12.226563 28.367188-13.035157 1.566406.210938 3.1875.191407 4.824218-.125 13.066406.394531 25.222656 6.382813 33.53125 16.570313 8.722656 10.695312 11.953125 24.234375 9.097656 38.125zm0 0" fill="#ffe1ba"/></svg>